<?xml version="1.0" encoding="UTF-8"?>
<svg version="1.1" xmlns="http://www.w3.org/2000/svg" width="2000" height="2000">
<path d="M0 0 C1.31068495 -0.00457964 1.31068495 -0.00457964 2.64784839 -0.00925181 C5.60217535 -0.01710113 8.55630059 -0.01059997 11.51062882 -0.00426924 C13.64867213 -0.00696026 15.78671449 -0.01052673 17.92475504 -0.01489371 C23.84252048 -0.02440081 29.76022477 -0.02133527 35.67799332 -0.01633817 C42.09997903 -0.01308557 48.52195128 -0.02134232 54.94393277 -0.02815652 C66.21340463 -0.03884453 77.48286132 -0.04136401 88.75233757 -0.03924429 C100.84807214 -0.0369978 112.94379438 -0.03905515 125.03952706 -0.04638922 C125.80268488 -0.04684853 126.56584269 -0.04730783 127.35212651 -0.04778106 C130.46020513 -0.04966427 133.56828374 -0.05157564 136.67636232 -0.05352344 C169.12501825 -0.07382897 201.57366728 -0.07993602 234.02232884 -0.08110766 C237.5167057 -0.08123715 241.01108256 -0.08137303 244.50545943 -0.08151448 C245.37255887 -0.08154849 246.2396583 -0.0815825 247.13303348 -0.08161754 C266.33424334 -0.08243389 285.53545188 -0.08681193 304.73666104 -0.09182617 C312.63905442 -0.09388283 320.54144782 -0.09586287 328.44384122 -0.09785867 C329.31694438 -0.09807985 330.19004754 -0.09830102 331.08960837 -0.09852891 C381.13356865 -0.11117992 431.17752807 -0.11942682 481.22149003 -0.1185118 C483.0949503 -0.11848024 484.96841057 -0.11844877 486.84187085 -0.11841738 C495.30070774 -0.11827061 503.75954463 -0.11809427 512.21838152 -0.11790961 C515.99052362 -0.11782736 519.76266572 -0.11774707 523.53480783 -0.11766698 C525.42283441 -0.11762619 527.310861 -0.11758415 529.19888758 -0.11754086 C588.91167846 -0.11618011 648.62444562 -0.13081833 708.33722985 -0.15862143 C723.3831937 -0.1656232 738.42915758 -0.172562 753.47512162 -0.17915022 C754.86469247 -0.17975885 754.86469247 -0.17975885 756.28233546 -0.18037976 C784.82331874 -0.19280508 813.36430008 -0.20033998 841.90528595 -0.2028662 C842.8010452 -0.2029461 843.69680444 -0.203026 844.61970791 -0.20310832 C864.28151367 -0.20481468 883.9433193 -0.20533733 903.60512512 -0.20476757 C910.64005258 -0.20457459 917.67498004 -0.20447051 924.70990751 -0.20441011 C926.4600871 -0.20439428 928.21026668 -0.20437387 929.96044627 -0.20434886 C957.8745044 -0.20399588 985.78854227 -0.21540569 1013.70259459 -0.2326565 C1041.8088217 -0.24993781 1069.91502071 -0.25435484 1098.02125089 -0.24113385 C1101.90155707 -0.23930915 1105.7818633 -0.23762262 1109.66216958 -0.23601782 C1110.80318208 -0.23553756 1110.80318208 -0.23553756 1111.96724534 -0.2350476 C1124.03172235 -0.23033406 1136.0961509 -0.23907404 1148.16061879 -0.2533602 C1160.01198294 -0.26711433 1171.86326954 -0.26634921 1183.71463228 -0.25097592 C1190.05922455 -0.24315931 1196.40364403 -0.24181393 1202.7482246 -0.25789063 C1208.51220938 -0.2723691 1214.27587629 -0.26867005 1220.03984655 -0.25004289 C1222.11961387 -0.24658053 1224.19940561 -0.24992065 1226.27914817 -0.26064531 C1229.09109073 -0.27418242 1231.90190268 -0.26329179 1234.71380043 -0.24609566 C1235.92858939 -0.26079452 1235.92858939 -0.26079452 1237.16791953 -0.27579032 C1242.38908964 -0.20885525 1245.31104106 0.84426119 1249.48224938 4.25299966 C1250.82746422 5.91169107 1250.82746422 5.91169107 1251.69318688 7.60456216 C1252.04211998 8.2726188 1252.39105309 8.94067544 1252.75055993 9.62897623 C1253.11576745 10.37115396 1253.48097497 11.11333169 1253.85724938 11.87799966 C1254.26950768 12.68720865 1254.68176598 13.49641763 1255.10651696 14.3301481 C1260.01902169 24.09679117 1264.61429893 34.02630965 1269.23884118 43.9317106 C1273.80148359 53.70440146 1278.44775774 63.4313787 1283.16974938 73.12799966 C1287.83220334 82.7086368 1292.40063937 92.32424401 1296.85724938 102.00299966 C1302.11312328 113.4164545 1307.57078017 124.72109564 1313.08521569 136.01117837 C1318.36333351 146.82286823 1323.50163052 157.68529048 1328.52912438 168.61628091 C1332.88827676 178.05751441 1337.41847558 187.40937958 1341.98224938 196.75299966 C1347.63043753 208.31679019 1353.15133713 219.92366772 1358.52912438 231.61628091 C1362.88827708 241.05751511 1367.41849656 250.40936874 1371.98224938 259.75299966 C1377.65326446 271.36377005 1383.19802289 283.01765189 1388.59943688 294.75690591 C1392.77974654 303.81251469 1397.11067259 312.78853969 1401.48224938 321.75299966 C1406.39785178 331.83305157 1411.23186005 341.93949647 1415.91974938 352.12799966 C1421.15354473 363.5006828 1426.59133515 374.76323104 1432.08549035 386.01172769 C1437.36351533 396.82323447 1442.50171631 407.68547701 1447.52912438 418.61628091 C1451.88827676 428.05751441 1456.41847558 437.40937958 1460.98224938 446.75299966 C1466.63043753 458.31679019 1472.15133713 469.92366772 1477.52912438 481.61628091 C1481.88827708 491.05751511 1486.41849656 500.40936874 1490.98224938 509.75299966 C1496.65326446 521.36377005 1502.19802289 533.01765189 1507.59943688 544.75690591 C1511.77974654 553.81251469 1516.11067259 562.78853969 1520.48224938 571.75299966 C1525.39785178 581.83305157 1530.23186005 591.93949647 1534.91974938 602.12799966 C1540.15354473 613.5006828 1545.59133515 624.76323104 1551.08549035 636.01172769 C1556.36351533 646.82323447 1561.50171631 657.68547701 1566.52912438 668.61628091 C1570.88827741 678.05751582 1575.41851754 687.40935789 1579.98224938 696.75299966 C1585.66715763 708.39246106 1591.22998785 720.07371479 1596.64338219 731.84259927 C1601.52695722 742.42906366 1606.6066879 752.91703804 1611.72297204 763.3926481 C1612.03342461 764.02982263 1612.34387719 764.66699716 1612.66373742 765.32348001 C1613.50690799 767.05345619 1614.35241023 768.78229539 1615.19806969 770.5110563 C1617.82341354 776.11661463 1618.31048973 781.13416277 1617.48224938 787.25299966 C1614.55920193 794.13380162 1607.51137019 799.05012968 1602.06428063 803.96003091 C1597.71941015 807.90567533 1593.60627472 812.07398826 1589.50373375 816.26911294 C1586.61938728 819.1973966 1583.67906079 821.98759404 1580.56428063 824.67096841 C1576.3257323 828.33211047 1572.40238469 832.25629921 1568.48224938 836.25299966 C1563.96249626 840.86102921 1559.37292711 845.26317763 1554.48224938 849.47565591 C1550.9925366 852.57686551 1547.75008318 855.92134098 1544.48224938 859.25299966 C1539.96249626 863.86102921 1535.37292711 868.26317763 1530.48224938 872.47565591 C1526.9925366 875.57686551 1523.75008318 878.92134098 1520.48224938 882.25299966 C1515.96249626 886.86102921 1511.37292711 891.26317763 1506.48224938 895.47565591 C1502.9925366 898.57686551 1499.75008318 901.92134098 1496.48224938 905.25299966 C1491.96249626 909.86102921 1487.37292711 914.26317763 1482.48224938 918.47565591 C1478.9925366 921.57686551 1475.75008318 924.92134098 1472.48224938 928.25299966 C1467.96249626 932.86102921 1463.37292711 937.26317763 1458.48224938 941.47565591 C1454.9925366 944.57686551 1451.75008318 947.92134098 1448.48224938 951.25299966 C1443.96249626 955.86102921 1439.37292711 960.26317763 1434.48224938 964.47565591 C1430.9925366 967.57686551 1427.75008318 970.92134098 1424.48224938 974.25299966 C1419.96249626 978.86102921 1415.37292711 983.26317763 1410.48224938 987.47565591 C1406.9925366 990.57686551 1403.75008318 993.92134098 1400.48224938 997.25299966 C1395.96249626 1001.86102921 1391.37292711 1006.26317763 1386.48224938 1010.47565591 C1382.9925366 1013.57686551 1379.75008318 1016.92134098 1376.48224938 1020.25299966 C1371.95246225 1024.87125919 1367.35265454 1029.28497246 1362.45099938 1033.50690591 C1359.14486837 1036.43912925 1356.07307273 1039.59710635 1352.98224938 1042.75299966 C1349.26634914 1046.54712939 1345.53912474 1050.25436532 1341.51349938 1053.72174966 C1337.28986128 1057.36366457 1333.38566775 1061.27334265 1329.48224938 1065.25299966 C1324.96249626 1069.86102921 1320.37292711 1074.26317763 1315.48224938 1078.47565591 C1311.9925366 1081.57686551 1308.75008318 1084.92134098 1305.48224938 1088.25299966 C1300.96249626 1092.86102921 1296.37292711 1097.26317763 1291.48224938 1101.47565591 C1287.9925366 1104.57686551 1284.75008318 1107.92134098 1281.48224938 1111.25299966 C1276.96249626 1115.86102921 1272.37292711 1120.26317763 1267.48224938 1124.47565591 C1263.9925366 1127.57686551 1260.75008318 1130.92134098 1257.48224938 1134.25299966 C1252.96249626 1138.86102921 1248.37292711 1143.26317763 1243.48224938 1147.47565591 C1239.9925366 1150.57686551 1236.75008318 1153.92134098 1233.48224938 1157.25299966 C1228.96249626 1161.86102921 1224.37292711 1166.26317763 1219.48224938 1170.47565591 C1215.9925366 1173.57686551 1212.75008318 1176.92134098 1209.48224938 1180.25299966 C1204.96249626 1184.86102921 1200.37292711 1189.26317763 1195.48224938 1193.47565591 C1191.9925366 1196.57686551 1188.75008318 1199.92134098 1185.48224938 1203.25299966 C1180.96249626 1207.86102921 1176.37292711 1212.26317763 1171.48224938 1216.47565591 C1167.9925366 1219.57686551 1164.75008318 1222.92134098 1161.48224938 1226.25299966 C1156.96249626 1230.86102921 1152.37292711 1235.26317763 1147.48224938 1239.47565591 C1143.9925366 1242.57686551 1140.75008318 1245.92134098 1137.48224938 1249.25299966 C1132.96249626 1253.86102921 1128.37292711 1258.26317763 1123.48224938 1262.47565591 C1119.9925366 1265.57686551 1116.75008318 1268.92134098 1113.48224938 1272.25299966 C1108.96249626 1276.86102921 1104.37292711 1281.26317763 1099.48224938 1285.47565591 C1095.9925366 1288.57686551 1092.75008318 1291.92134098 1089.48224938 1295.25299966 C1084.96249626 1299.86102921 1080.37292711 1304.26317763 1075.48224938 1308.47565591 C1071.9925366 1311.57686551 1068.75008318 1314.92134098 1065.48224938 1318.25299966 C1060.96249626 1322.86102921 1056.37292711 1327.26317763 1051.48224938 1331.47565591 C1047.9925366 1334.57686551 1044.75008318 1337.92134098 1041.48224938 1341.25299966 C1036.96249626 1345.86102921 1032.37292711 1350.26317763 1027.48224938 1354.47565591 C1023.9925366 1357.57686551 1020.75008318 1360.92134098 1017.48224938 1364.25299966 C1012.96249626 1368.86102921 1008.37292711 1373.26317763 1003.48224938 1377.47565591 C999.9925366 1380.57686551 996.75008318 1383.92134098 993.48224938 1387.25299966 C988.96249626 1391.86102921 984.37292711 1396.26317763 979.48224938 1400.47565591 C975.9925366 1403.57686551 972.75008318 1406.92134098 969.48224938 1410.25299966 C964.96249626 1414.86102921 960.37292711 1419.26317763 955.48224938 1423.47565591 C951.9925366 1426.57686551 948.75008318 1429.92134098 945.48224938 1433.25299966 C940.96249626 1437.86102921 936.37292711 1442.26317763 931.48224938 1446.47565591 C927.9925366 1449.57686551 924.75008318 1452.92134098 921.48224938 1456.25299966 C916.96249626 1460.86102921 912.37292711 1465.26317763 907.48224938 1469.47565591 C903.9925366 1472.57686551 900.75008318 1475.92134098 897.48224938 1479.25299966 C892.96249626 1483.86102921 888.37292711 1488.26317763 883.48224938 1492.47565591 C879.9925366 1495.57686551 876.75008318 1498.92134098 873.48224938 1502.25299966 C868.96249626 1506.86102921 864.37292711 1511.26317763 859.48224938 1515.47565591 C855.9925366 1518.57686551 852.75008318 1521.92134098 849.48224938 1525.25299966 C844.96249626 1529.86102921 840.37292711 1534.26317763 835.48224938 1538.47565591 C831.9925366 1541.57686551 828.75008318 1544.92134098 825.48224938 1548.25299966 C820.96249626 1552.86102921 816.37292711 1557.26317763 811.48224938 1561.47565591 C807.9925366 1564.57686551 804.75008318 1567.92134098 801.48224938 1571.25299966 C796.96249626 1575.86102921 792.37292711 1580.26317763 787.48224938 1584.47565591 C783.9925366 1587.57686551 780.75008318 1590.92134098 777.48224938 1594.25299966 C772.96249626 1598.86102921 768.37292711 1603.26317763 763.48224938 1607.47565591 C759.9925366 1610.57686551 756.75008318 1613.92134098 753.48224938 1617.25299966 C748.96249626 1621.86102921 744.37292711 1626.26317763 739.48224938 1630.47565591 C735.9925366 1633.57686551 732.75008318 1636.92134098 729.48224938 1640.25299966 C724.96249626 1644.86102921 720.37292711 1649.26317763 715.48224938 1653.47565591 C711.9925366 1656.57686551 708.75008318 1659.92134098 705.48224938 1663.25299966 C700.96249626 1667.86102921 696.37292711 1672.26317763 691.48224938 1676.47565591 C687.9925366 1679.57686551 684.75008318 1682.92134098 681.48224938 1686.25299966 C676.96249626 1690.86102921 672.37292711 1695.26317763 667.48224938 1699.47565591 C663.9925366 1702.57686551 660.75008318 1705.92134098 657.48224938 1709.25299966 C652.93699114 1713.88703248 648.32106512 1718.3163275 643.40168297 1722.55182779 C639.79675489 1725.74683401 636.49035101 1729.24086432 633.15217125 1732.71003091 C628.42669718 1737.53240856 624.70980634 1740.67709749 617.66974938 1740.81549966 C616.69392907 1740.85803873 615.71810875 1740.90057779 614.71271813 1740.94440591 C606.76057977 1739.24243676 600.94440291 1731.95367963 595.48224938 1726.31549966 C590.96524435 1721.67939392 586.38900274 1717.25027804 581.48224938 1713.02814615 C577.28123723 1709.29944017 573.41365206 1705.22212505 569.48224938 1701.21393716 C566.242274 1697.93599333 562.97527869 1694.76164405 559.48224938 1691.75299966 C554.54762807 1687.50267154 550.03971549 1682.86041629 545.48224938 1678.21393716 C542.242274 1674.93599333 538.97527869 1671.76164405 535.48224938 1668.75299966 C530.54762807 1664.50267154 526.03971549 1659.86041629 521.48224938 1655.21393716 C518.242274 1651.93599333 514.97527869 1648.76164405 511.48224938 1645.75299966 C506.54762807 1641.50267154 502.03971549 1636.86041629 497.48224938 1632.21393716 C494.242274 1628.93599333 490.97527869 1625.76164405 487.48224938 1622.75299966 C482.54762807 1618.50267154 478.03971549 1613.86041629 473.48224938 1609.21393716 C470.242274 1605.93599333 466.97527869 1602.76164405 463.48224938 1599.75299966 C458.54762807 1595.50267154 454.03971549 1590.86041629 449.48224938 1586.21393716 C446.242274 1582.93599333 442.97527869 1579.76164405 439.48224938 1576.75299966 C434.54762807 1572.50267154 430.03971549 1567.86041629 425.48224938 1563.21393716 C422.242274 1559.93599333 418.97527869 1556.76164405 415.48224938 1553.75299966 C410.54762807 1549.50267154 406.03971549 1544.86041629 401.48224938 1540.21393716 C398.242274 1536.93599333 394.97527869 1533.76164405 391.48224938 1530.75299966 C386.54762807 1526.50267154 382.03971549 1521.86041629 377.48224938 1517.21393716 C374.242274 1513.93599333 370.97527869 1510.76164405 367.48224938 1507.75299966 C362.54762807 1503.50267154 358.03971549 1498.86041629 353.48224938 1494.21393716 C350.2525074 1490.94634665 346.99713313 1487.78147634 343.51349938 1484.78424966 C338.33909961 1480.32739361 333.61974369 1475.43853576 328.83771813 1470.56940591 C324.84686236 1466.53477476 320.76572929 1462.71328228 316.46467125 1459.01276529 C312.26984331 1455.28908058 308.40808011 1451.21644427 304.48224938 1447.21393716 C301.242274 1443.93599333 297.97527869 1440.76164405 294.48224938 1437.75299966 C289.54762807 1433.50267154 285.03971549 1428.86041629 280.48224938 1424.21393716 C277.242274 1420.93599333 273.97527869 1417.76164405 270.48224938 1414.75299966 C265.54762807 1410.50267154 261.03971549 1405.86041629 256.48224938 1401.21393716 C253.242274 1397.93599333 249.97527869 1394.76164405 246.48224938 1391.75299966 C241.54762807 1387.50267154 237.03971549 1382.86041629 232.48224938 1378.21393716 C229.242274 1374.93599333 225.97527869 1371.76164405 222.48224938 1368.75299966 C217.54762807 1364.50267154 213.03971549 1359.86041629 208.48224938 1355.21393716 C205.242274 1351.93599333 201.97527869 1348.76164405 198.48224938 1345.75299966 C193.54762807 1341.50267154 189.03971549 1336.86041629 184.48224938 1332.21393716 C181.242274 1328.93599333 177.97527869 1325.76164405 174.48224938 1322.75299966 C169.54762807 1318.50267154 165.03971549 1313.86041629 160.48224938 1309.21393716 C157.242274 1305.93599333 153.97527869 1302.76164405 150.48224938 1299.75299966 C145.54762807 1295.50267154 141.03971549 1290.86041629 136.48224938 1286.21393716 C133.242274 1282.93599333 129.97527869 1279.76164405 126.48224938 1276.75299966 C121.54762807 1272.50267154 117.03971549 1267.86041629 112.48224938 1263.21393716 C109.242274 1259.93599333 105.97527869 1256.76164405 102.48224938 1253.75299966 C97.54762807 1249.50267154 93.03971549 1244.86041629 88.48224938 1240.21393716 C85.242274 1236.93599333 81.97527869 1233.76164405 78.48224938 1230.75299966 C73.54762807 1226.50267154 69.03971549 1221.86041629 64.48224938 1217.21393716 C61.242274 1213.93599333 57.97527869 1210.76164405 54.48224938 1207.75299966 C49.54762807 1203.50267154 45.03971549 1198.86041629 40.48224938 1194.21393716 C37.242274 1190.93599333 33.97527869 1187.76164405 30.48224938 1184.75299966 C25.54762807 1180.50267154 21.03971549 1175.86041629 16.48224938 1171.21393716 C13.242274 1167.93599333 9.97527869 1164.76164405 6.48224938 1161.75299966 C1.54762807 1157.50267154 -2.96028451 1152.86041629 -7.51775062 1148.21393716 C-10.757726 1144.93599333 -14.02472131 1141.76164405 -17.51775062 1138.75299966 C-22.45237193 1134.50267154 -26.96028451 1129.86041629 -31.51775062 1125.21393716 C-34.757726 1121.93599333 -38.02472131 1118.76164405 -41.51775062 1115.75299966 C-46.45237193 1111.50267154 -50.96028451 1106.86041629 -55.51775062 1102.21393716 C-58.757726 1098.93599333 -62.02472131 1095.76164405 -65.51775062 1092.75299966 C-70.45237193 1088.50267154 -74.96028451 1083.86041629 -79.51775062 1079.21393716 C-82.757726 1075.93599333 -86.02472131 1072.76164405 -89.51775062 1069.75299966 C-94.45237193 1065.50267154 -98.96028451 1060.86041629 -103.51775062 1056.21393716 C-106.757726 1052.93599333 -110.02472131 1049.76164405 -113.51775062 1046.75299966 C-118.45237193 1042.50267154 -122.96028451 1037.86041629 -127.51775062 1033.21393716 C-130.757726 1029.93599333 -134.02472131 1026.76164405 -137.51775062 1023.75299966 C-142.45237193 1019.50267154 -146.96028451 1014.86041629 -151.51775062 1010.21393716 C-154.757726 1006.93599333 -158.02472131 1003.76164405 -161.51775062 1000.75299966 C-166.45237193 996.50267154 -170.96028451 991.86041629 -175.51775062 987.21393716 C-178.757726 983.93599333 -182.02472131 980.76164405 -185.51775062 977.75299966 C-190.45237193 973.50267154 -194.96028451 968.86041629 -199.51775062 964.21393716 C-202.757726 960.93599333 -206.02472131 957.76164405 -209.51775062 954.75299966 C-214.45237193 950.50267154 -218.96028451 945.86041629 -223.51775062 941.21393716 C-226.757726 937.93599333 -230.02472131 934.76164405 -233.51775062 931.75299966 C-238.45237193 927.50267154 -242.96028451 922.86041629 -247.51775062 918.21393716 C-250.757726 914.93599333 -254.02472131 911.76164405 -257.51775062 908.75299966 C-262.45237193 904.50267154 -266.96028451 899.86041629 -271.51775062 895.21393716 C-274.757726 891.93599333 -278.02472131 888.76164405 -281.51775062 885.75299966 C-286.45237193 881.50267154 -290.96028451 876.86041629 -295.51775062 872.21393716 C-298.757726 868.93599333 -302.02472131 865.76164405 -305.51775062 862.75299966 C-310.45237193 858.50267154 -314.96028451 853.86041629 -319.51775062 849.21393716 C-322.757726 845.93599333 -326.02472131 842.76164405 -329.51775062 839.75299966 C-334.45237193 835.50267154 -338.96028451 830.86041629 -343.51775062 826.21393716 C-346.75516764 822.93858167 -350.01925889 819.7666037 -353.50993812 816.76081216 C-357.7716968 813.09032826 -361.7055956 809.14101509 -365.64275062 805.12799966 C-370.10462267 800.58113957 -374.58049575 796.27921346 -379.51775062 792.25299966 C-383.0027879 788.30329075 -382.96216582 784.44080824 -382.89763343 779.38825357 C-382.19353517 773.5771804 -379.54921335 768.68795039 -376.95525062 763.50299966 C-376.36604653 762.28584974 -375.77885485 761.06772388 -375.19353187 759.84870279 C-373.64062957 756.62680211 -372.06310381 753.41758593 -370.48033607 750.21027505 C-368.89524951 746.98723557 -367.33354558 743.75295342 -365.77165687 740.51862466 C-365.14760776 739.22693108 -364.52350285 737.93526446 -363.89934242 736.64362466 C-363.58975593 736.0029606 -363.28016944 735.36229654 -362.96120155 734.70221841 C-362.0108745 732.73879325 -361.05734731 730.77695196 -360.1029557 728.81549966 C-356.02155605 720.4204611 -352.04597348 711.98275133 -348.14275062 703.50299966 C-342.8873507 692.09015357 -337.42980165 680.7862859 -331.91579139 669.49683511 C-326.61453747 658.63747529 -321.45188197 647.72746228 -316.40056312 636.74909341 C-311.89129854 626.98088502 -307.2012661 617.30650465 -302.48570716 607.63666666 C-297.9162015 598.26130627 -293.43994673 588.85321859 -289.08025062 579.37799966 C-283.84645527 568.00531653 -278.40866485 556.74276828 -272.91450965 545.49427164 C-268.17828679 535.79259234 -263.52910411 526.0617758 -259.01775062 516.25299966 C-253.80588985 504.92115086 -248.38811269 493.70063917 -242.914235 482.49372232 C-238.17810464 472.79222617 -233.52901836 463.06158936 -229.01775062 453.25299966 C-223.80588985 441.92115086 -218.38811269 430.70063917 -212.914235 419.49372232 C-208.17810464 409.79222617 -203.52901836 400.06158936 -199.01775062 390.25299966 C-194.15616371 379.68273115 -189.12374495 369.20679248 -184.01775062 358.75299966 C-178.34673554 347.14222928 -172.80197711 335.48834744 -167.40056312 323.74909341 C-162.89129854 313.98088502 -158.2012661 304.30650465 -153.48570716 294.63666666 C-148.9162015 285.26130627 -144.43994673 275.85321859 -140.08025062 266.37799966 C-134.84645527 255.00531653 -129.40866485 243.74276828 -123.91450965 232.49427164 C-119.17828679 222.79259234 -114.52910411 213.0617758 -110.01775062 203.25299966 C-104.80588985 191.92115086 -99.38811269 180.70063917 -93.914235 169.49372232 C-89.17810464 159.79222617 -84.52901836 150.06158936 -80.01775062 140.25299966 C-75.15616371 129.68273115 -70.12374495 119.20679248 -65.01775062 108.75299966 C-59.89142815 98.25742661 -54.83887191 87.7392777 -49.95525062 77.12799966 C-44.56776673 65.42400906 -38.99237324 53.81998037 -33.34465492 42.23981607 C-32.67572219 40.86794206 -32.00685748 39.49603488 -31.33806312 38.12409341 C-30.84953613 37.12203866 -30.84953613 37.12203866 -30.3511399 36.09974039 C-28.26978344 31.82213389 -26.22246601 27.53022676 -24.19743812 23.22565591 C-23.44744545 21.63491251 -23.44744545 21.63491251 -22.6823014 20.01203287 C-21.77141495 18.07439471 -20.86572245 16.13430201 -19.96648109 14.19123209 C-15.12962279 3.91947208 -11.67412983 -0.06513474 0 0 Z " fill="#50AF95" transform="translate(382.517750620842,129.74700033664703)"/>
<path d="M0 0 C313.17 0 626.34 0 949 0 C949 76.56 949 153.12 949 232 C834.16 232 719.32 232 601 232 C601 282.49 601 332.98 601 385 C604.96 385 608.92 385 613 385 C615.19418782 385.07220844 617.38798806 385.16340037 619.57983398 385.2878418 C620.73125885 385.3519928 621.88268372 385.4161438 623.06900024 385.48223877 C624.2824411 385.55384216 625.49588196 385.62544556 626.74609375 385.69921875 C628.70209 385.81182037 628.70209 385.81182037 630.69760132 385.92669678 C634.94467448 386.1731133 639.19111388 386.42955154 643.4375 386.6875 C644.16598019 386.73146534 644.89446037 386.77543068 645.64501572 386.8207283 C674.49815005 388.56452045 703.25082656 390.97792053 732 394 C733.5320105 394.15982361 733.5320105 394.15982361 735.0949707 394.32287598 C756.41780898 396.54881253 777.698654 398.91631294 798.90234375 402.1015625 C803.93660913 402.8571416 808.97756616 403.51510768 814.02954102 404.13989258 C823.11540507 405.26504156 832.07905822 406.67504909 841.05908203 408.45800781 C846.35155615 409.506896 851.64613185 410.45063088 856.97460938 411.29760742 C899.57224265 418.08816269 942.04971259 427.3758867 983 441 C984.31015548 441.42892167 985.62054688 441.85712326 986.93115234 442.28466797 C1072.26342548 470.17785692 1072.26342548 470.17785692 1090.85546875 502.1953125 C1095.73049168 511.80640284 1098.03994472 520.5524432 1095.09375 531.30859375 C1092.59395869 537.59813278 1089.34013133 542.83846274 1085 548 C1084.06800781 549.21816406 1084.06800781 549.21816406 1083.1171875 550.4609375 C1063.99195412 573.39710299 1030.0901739 585.30052133 1003 595 C1001.81438477 595.42941895 1000.62876953 595.85883789 999.40722656 596.30126953 C984.25978204 601.76503998 969.12059267 606.53298845 953.484375 610.37060547 C950.58078812 611.10620364 947.71266057 611.93543333 944.83984375 612.78173828 C902.03301695 625.30830248 856.99205829 632.32082142 812.89453125 638.58740234 C810.7247533 638.89669087 808.55557935 639.21022176 806.38671875 639.52587891 C770.136495 644.80163854 733.83158656 648.90632168 697.30029297 651.65649414 C696.29646576 651.73241791 695.29263855 651.80834167 694.25839233 651.88656616 C692.42771598 652.02405809 690.59686541 652.1592692 688.76577759 652.29116821 C679.15189058 653.00727698 669.60494673 654.03950533 660 655 C630.795 656.485 630.795 656.485 601 658 C600.67 819.37 600.34 980.74 600 1147 C516.84 1147 433.68 1147 348 1147 C348 985.63 348 824.26 348 658 C319.1249115 656.4842981 319.1249115 656.4842981 290.24609375 655.24609375 C286.76363847 655.08627548 283.43874182 654.58229362 280 654 C277.2273076 653.84611985 274.46197101 653.72500165 271.6875 653.625 C244.8374011 652.42550239 218.11306456 649.07079592 191.44360352 645.87698364 C186.64453578 645.30452574 181.84350684 644.76167759 177.0380249 644.24598694 C167.59087696 643.22908596 158.20590074 641.92523537 148.8125 640.5 C145.96509674 640.07121915 143.11739018 639.64449317 140.26953125 639.21875 C139.22733932 639.06246124 139.22733932 639.06246124 138.16409302 638.90301514 C133.55642661 638.21692347 128.94366781 637.58724922 124.32421875 636.984375 C101.40404637 633.96637877 78.64973832 629.58863714 56 625 C55.32328247 624.8629364 54.64656494 624.7258728 53.94934082 624.58465576 C-108.76479479 591.53888533 -108.76479479 591.53888533 -142.07910156 541.79541016 C-147.8139049 532.81612219 -149.21617017 524.65318295 -148 514 C-142.95535293 494.77896049 -125.36941785 481.62389026 -109 472 C-66.14397789 447.56660306 -17.95595091 434.01922011 29.94610596 423.45373535 C32.18968024 422.95809685 34.43248291 422.45904576 36.67529297 421.95996094 C101.2132154 407.63007177 166.93525907 398.10796599 232.8125 392.6171875 C238.38854122 392.15012219 243.94403326 391.59884742 249.5 390.9375 C268.54999134 388.72660003 287.72396857 387.73251841 306.86062622 386.58248901 C309.14249094 386.44532819 311.42429191 386.3071021 313.70602417 386.16775513 C316.9665411 385.9695992 320.2273409 385.776985 323.48828125 385.5859375 C324.93731339 385.49702995 324.93731339 385.49702995 326.4156189 385.40632629 C333.64754278 384.99201311 340.72247423 385 348 385 C348 334.51 348 284.02 348 232 C233.16 232 118.32 232 0 232 C0 155.44 0 78.88 0 0 Z " fill="#FEFEFE" transform="translate(526,367)"/>
<path d="M0 0 C0 56.1 0 112.2 0 170 C23.92526321 170.85808189 23.92526321 170.85808189 47.85351562 171.60546875 C53.49104994 171.77856403 59.11528921 171.99359847 64.74314976 172.37368965 C74.76294702 173.03677685 84.74660797 173.1460579 94.78515625 173.1328125 C96.55927044 173.13387298 98.33338446 173.13525963 100.10749817 173.13694763 C104.7952377 173.13971662 109.48294246 173.13542049 114.17067719 173.12877274 C117.07840517 173.12497925 119.98612991 173.12292859 122.89385986 173.12130737 C151.93795381 173.10216745 180.96846546 172.92987623 210 172 C210.69559021 171.9783075 211.39118042 171.95661499 212.10784912 171.93426514 C224.7966385 171.71976351 224.7966385 171.71976351 237.40234375 170.46875 C242.22993235 169.83974823 247.13160653 170 252 170 C252 113.9 252 57.8 252 0 C273.88794425 0 273.88794425 0 283.03515625 0.55078125 C284.58674438 0.6382235 284.58674438 0.6382235 286.16967773 0.72743225 C289.46771043 0.91584405 292.76510551 1.11325061 296.0625 1.3125 C297.20838593 1.38035706 298.35427185 1.44821411 299.53488159 1.51812744 C317.89872149 2.60942741 336.20859357 3.96285992 354.51690674 5.75848389 C357.29066475 6.02827128 360.06494611 6.29217175 362.83935547 6.55517578 C377.89843615 7.98308739 392.95158558 9.4637244 408 11 C408.82413391 11.08358765 409.64826782 11.16717529 410.49737549 11.2532959 C436.88124988 13.93768341 462.99364649 18.18716047 489.14807129 22.52868652 C492.56737039 23.09376437 495.98832664 23.64823316 499.40948486 24.20191956 C521.1080082 27.7230074 542.56841694 32.11658188 564 37 C565.53164795 37.34562988 565.53164795 37.34562988 567.09423828 37.69824219 C661.8910057 59.31336705 661.8910057 59.31336705 683.85546875 91.15234375 C687.77264729 97.4759801 690.23890287 103.46845186 689 111 C682.53620387 129.54828456 665.0914144 139.82934265 648.3125 148 C636.59544901 153.52695187 624.39422523 157.75409081 612.14355469 161.92626953 C609.47654084 162.83722999 606.81877737 163.7688518 604.1640625 164.71484375 C591.02093764 169.3385032 577.5271063 172.70449323 564 176 C562.44539063 176.37874268 562.44539063 176.37874268 560.859375 176.76513672 C545.5087029 180.447822 530.02675305 183.36328393 514.5 186.1875 C513.1112114 186.44030228 513.1112114 186.44030228 511.69436646 186.69821167 C501.45268424 188.55538792 491.2027564 190.3256917 480.91616821 191.91654968 C477.15663238 192.49829912 473.40191048 193.09508603 469.65380859 193.74682617 C457.19177677 195.91201796 444.68240764 197.49634816 432.125 199 C431.03797791 199.1310614 429.95095581 199.2621228 428.83099365 199.39715576 C422.44699146 200.16683324 416.06206122 200.92830374 409.67626953 201.6829834 C407.39456008 201.95326252 405.11320109 202.22619019 402.83203125 202.50097656 C383.7122672 204.78562633 364.52090387 206.19829667 345.32275391 207.64306641 C344.23417587 207.72560669 343.14559784 207.80814697 342.02403259 207.89318848 C339.96752089 208.04871307 337.91085628 208.20223349 335.85401917 208.35339355 C334.92274704 208.42384888 333.99147491 208.4943042 333.03198242 208.56689453 C332.22597092 208.62668488 331.41995941 208.68647522 330.58952332 208.74807739 C328.62466068 208.93922969 326.66640144 209.19979083 324.71405029 209.49227905 C320.65306819 210.04742654 316.63299408 210.33189328 312.54321289 210.55664062 C311.31667999 210.62760201 311.31667999 210.62760201 310.06536865 210.69999695 C307.36796407 210.85517045 304.67033333 211.0058935 301.97265625 211.15625 C300.06391072 211.26437916 298.15517369 211.3726584 296.2464447 211.4810791 C292.23268567 211.70832769 288.21880642 211.93329204 284.20483398 212.15673828 C279.16227504 212.43768057 274.12009318 212.7248226 269.07799625 213.01392365 C265.12139306 213.23991269 261.16457788 213.46201565 257.20770073 213.68315125 C255.35567787 213.78714703 253.50371984 213.89230648 251.65184212 213.99885559 C224.41187382 215.56074381 197.19559016 216.15710816 169.9140625 216.1328125 C167.14578212 216.13303806 164.37750249 216.13446382 161.60922241 216.13571167 C155.85650134 216.13750709 150.10379329 216.13520023 144.35107422 216.13037109 C138.55158644 216.12555687 132.75212446 216.12554234 126.95263672 216.13037109 C80.85805221 216.16754733 34.89140814 215.54235403 -11.15008545 213.19366455 C-14.66257477 213.016461 -18.17541384 212.84678684 -21.68826008 212.67683125 C-38.02373267 211.8835747 -54.32195895 211.04450333 -70.60009766 209.42211914 C-75.66450638 208.91902363 -80.73280791 208.63016627 -85.81494141 208.3684082 C-127.39461774 206.21773529 -168.77755646 200.64291391 -210 195 C-210.94503387 194.87096283 -211.89006775 194.74192566 -212.86373901 194.60897827 C-224.48172424 193.01387018 -236.03402026 191.21007617 -247.5625 189.0625 C-249.00673514 188.79595597 -250.45099004 188.529519 -251.89526367 188.26318359 C-255.93166415 187.51660163 -259.9660486 186.7597026 -264 186 C-264.94166016 185.82355957 -265.88332031 185.64711914 -266.85351562 185.46533203 C-272.58492463 184.38296163 -278.29426793 183.20996861 -284 182 C-285.26054199 181.73493652 -286.52108398 181.46987305 -287.81982422 181.19677734 C-385.85058314 160.50127577 -385.85058314 160.50127577 -422 132 C-422.66644531 131.49855469 -423.33289063 130.99710938 -424.01953125 130.48046875 C-430.51497831 125.34354656 -436.15266102 117.80650186 -437.37109375 109.45703125 C-437.63291844 99.03024787 -433.46483236 91.66748916 -426.37890625 84.203125 C-383.30984889 44.3165103 -307.53366176 34.45329776 -251.80078125 24.66845703 C-248.37625337 24.06617303 -244.9535054 23.45488116 -241.53125 22.83984375 C-230.01977763 20.7842577 -218.49200797 18.969648 -206.90478516 17.39746094 C-203.8243054 16.97595976 -200.74624187 16.53887236 -197.66796875 16.1015625 C-175.14630044 12.95073836 -152.54075885 10.59968891 -129.91900635 8.29748535 C-127.12078244 8.01230933 -124.32282318 7.72465552 -121.52490234 7.43652344 C-94.05933348 4.61933515 -66.56611066 2.54847258 -39 1 C-38.11185608 0.94954529 -37.22371216 0.89909058 -36.30865479 0.84710693 C-33.62924298 0.69774875 -30.94952289 0.5565007 -28.26953125 0.41796875 C-27.50235275 0.37529373 -26.73517426 0.33261871 -25.94474792 0.28865051 C-17.27708878 -0.13833468 -8.7148896 0 0 0 Z " fill="#50AF95" transform="translate(874,770)"/>
</svg>
